#!OML:ASF X:\für Bonn\!DataBase\2005_08_10_Bjorn_Final\c3d\bjorn.ASF
:FULLY-SPECIFIED
:DEGREES
216
root 1.60942 18.7726 2.1966 -186.566 -13.2728 -209.926
lowerback 8.13532 -4.49686 10.7569
upperback 15.4283 -8.82851 -1.83515
thorax 10.7757 -4.24774 -8.17091
lowerneck 0.219033 11.6903 3.28353
upperneck 8.52164 16.9289 -20.5456
head 4.59525 7.40194 -6.02918
rclavicle -3.18055e-014 -4.13472e-014
rhumerus -68.0035 -31.9266 -22.2654
rradius 32.7515
rwrist -36.0364
rhand -18.9694 5.86805
rfingers 7.12502
rthumb 7.33473 -23.9848
lclavicle -3.18055e-014 -4.13472e-014
lhumerus -11.4868 15.4044 51.669
lradius 63.036
lwrist -30.2654
lhand -52.7771 -28.2488
lfingers 7.12502
lthumb -25.2522 0.10006
rfemur -0.879511 6.06239 -13.0179
rtibia 38.4178
rfoot -21.8028 10.6511
rtoes -17.8962
lfemur -22.2797 5.85217 5.62848
ltibia 36.6774
lfoot 21.386 -0.427853
ltoes -9.48287
217
root 1.59015 18.7547 2.22718 -186.859 -12.6729 -210.045
lowerback 8.5678 -4.38852 10.7602
upperback 15.5143 -8.68732 -1.87038
thorax 10.6598 -4.20676 -8.17393
lowerneck -0.33401 11.6801 3.00041
upperneck 7.95198 16.8516 -20.3937
head 4.47235 7.37691 -5.91323
rclavicle 4.6118e-014 3.18055e-015
rhumerus -68.1375 -32.2469 -21.7941
rradius 31.3052
rwrist -35.3695
rhand -19.2138 5.2081
rfingers 7.12502
rthumb 7.09879 -24.6528
lclavicle 4.6118e-014 3.18055e-015
lhumerus -10.7007 15.4679 51.4311
lradius 63.2537
lwrist -30.6655
lhand -52.7324 -27.4241
lfingers 7.12502
lthumb -25.2094 0.930861
rfemur -1.10499 6.80437 -13.0206
rtibia 38.7551
rfoot -22.2116 10.162
rtoes -18.0855
lfemur -21.6287 5.62601 5.28196
ltibia 39.0195
lfoot 22.5285 -1.46357
ltoes -9.3925
218
root 1.57218 18.74 2.25775 -187.123 -12.0813 -210.127
lowerback 8.99171 -4.27797 10.7793
upperback 15.5497 -8.51872 -1.9251
thorax 10.4879 -4.14761 -8.20338
lowerneck -0.609526 11.6647 2.84923
upperneck 7.37876 16.7537 -20.3019
head 4.31445 7.36026 -5.85715
rclavicle 6.67916e-014 5.40694e-014
rhumerus -68.3406 -32.5205 -21.375
rradius 29.8986
rwrist -34.6277
rhand -19.2729 4.53627
rfingers 7.12502
rthumb 7.04172 -25.3266
lclavicle 6.67916e-014 5.40694e-014
lhumerus -10.1798 15.59 51.2655
lradius 63.7442
lwrist -31.0314
lhand -52.6559 -26.5766
lfingers 7.12502
lthumb -25.1361 1.78858
rfemur -1.34454 7.37584 -13.0384
rtibia 39.0571
rfoot -22.3815 10.0883
rtoes -16.1782
lfemur -21.1022 5.37822 4.95298
ltibia 41.3444
lfoot 23.6743 -2.63442
ltoes -9.47048
219
root 1.55584 18.7301 2.28699 -187.345 -11.5244 -210.183
lowerback 9.36359 -4.18879 10.8017
upperback 15.5589 -8.36981 -2.01028
thorax 10.3054 -4.09253 -8.27138
lowerneck -0.709222 11.6778 2.80245
upperneck 6.78432 16.686 -20.2537
head 4.13661 7.37231 -5.84003
rclavicle 7.95139e-015 7.31528e-014
rhumerus -68.4823 -32.7405 -21.156
rradius 28.5889
rwrist -33.8583
rhand -19.2426 3.88043
rfingers 7.12502
rthumb 7.07101 -25.9815
lclavicle 7.95139e-015 7.31528e-014
lhumerus -9.91924 15.7037 51.1131
lradius 64.4137
lwrist -31.2851
lhand -52.7449 -25.9747
lfingers 7.12502
lthumb -25.2213 2.37854
rfemur -1.62606 7.60325 -13.0355
rtibia 39.3523
rfoot -22.714 9.63396
rtoes -16.4289
lfemur -20.6507 5.16902 4.6073
ltibia 43.5864
lfoot 24.684 -3.75659
ltoes -9.31264
220
root 1.54245 18.7225 2.3139 -187.509 -11.0247 -210.214
lowerback 9.65871 -4.11451 10.8058
upperback 15.5584 -8.24518 -2.0867
thorax 10.1529 -4.04677 -8.32815
lowerneck -0.801016 11.7181 2.75349
upperneck 6.27563 16.6687 -20.2299
head 3.9919 7.39941 -5.82637
rclavicle -2.8625e-014 3.81667e-014
rhumerus -68.5705 -32.9728 -21.0518
rradius 27.3928
rwrist -32.962
rhand -19.1422 3.33057
rfingers 7.12502
rthumb 7.16792 -26.528
lclavicle -2.8625e-014 3.81667e-014
lhumerus -9.76395 15.8274 51.0748
lradius 65.1427
lwrist -31.3954
lhand -53.0484 -25.9569
lfingers 7.12502
lthumb -25.5121 2.35506
rfemur -1.938 7.66896 -13.005
rtibia 39.6666
rfoot -23.0592 9.08161
rtoes -16.9342
lfemur -20.2567 4.97799 4.23219
ltibia 45.6733
lfoot 25.4293 -4.69215
ltoes -8.8114
221
root 1.53225 18.714 2.33759 -187.588 -10.6231 -210.227
lowerback 9.80685 -4.04967 10.7504
upperback 15.5675 -8.15338 -2.13329
thorax 10.0972 -4.01509 -8.33834
lowerneck -0.852161 11.7828 2.69344
upperneck 5.78128 16.6863 -20.2903
head 3.85594 7.43777 -5.83739
rclavicle 3.49861e-014 3.49861e-014
rhumerus -68.4385 -33.1804 -21.3306
rradius 26.4802
rwrist -32.5893
rhand -19.1814 2.95339
rfingers 7.12502
rthumb 7.13006 -26.9065
lclavicle 3.49861e-014 3.49861e-014
lhumerus -9.60616 15.9538 51.1978
lradius 65.8071
lwrist -31.2756
lhand -53.5299 -26.4545
lfingers 7.12502
lthumb -25.9733 1.79068
rfemur -2.2939 7.56082 -12.9461
rtibia 40.0257
rfoot -23.4232 8.42724
rtoes -17.3075
lfemur -19.9452 4.78731 3.80856
ltibia 47.5552
lfoot 25.9431 -5.37776
ltoes -8.22389
